<svg xmlns="http://www.w3.org/2000/svg" viewBox="17.964 15.507 74 74">
  <ellipse style="paint-order: fill; fill-rule: evenodd; fill: rgb(56, 178, 74);" cx="53.726" cy="51.269" rx="35.762" ry="35.762"></ellipse>
  <g id="group_2" transform="matrix(1, 0, 0, 1, 0.999702, -3.660471)">
    <g id="group" transform="translate(10 19)">
      <path id="path" d="M 53.266 16.223 C 54.301 16.656 56.121 19.344 55.695 22.297 C 53.699 23.945 51.18 25.07 48.84 25.504 L 48.84 44.41 L 55.867 44.41 C 55.867 47.277 55.434 49.621 54.906 50.484 L 42.16 50.484 L 42.16 25.766 L 33.137 25.766 L 33.137 40.512 C 33.137 47.883 28.977 51.617 23.594 51.617 C 22.121 51.617 20.301 51.441 18.734 51.008 C 18.043 50.055 17.699 47.191 17.609 43.633 C 21.164 45.371 25.938 46.152 26.375 40.598 L 26.375 26.719 C 20.992 27.324 18.996 31.051 17.176 33.57 C 17.176 30.191 17.438 27.152 17.52 25.07 C 21.254 21.082 25.332 19.258 33.48 19.258 L 45.109 19.258 C 47.973 19.258 50.746 18.219 53.266 16.223 Z M 53.266 16.223" style="fill: rgb(255, 255, 255);"></path>
    </g>
    <g id="group_1" transform="translate(37 16.8)">
      <path id="path_1" d="M 36 42 C 37.656 42 39 40.656 39 39 L 39 21 C 39 19.344 37.656 18 36 18 C 34.344 18 33 19.344 33 21 L 33 39 C 33 40.656 34.344 42 36 42 Z M 36 54 C 38.07 54 39.75 52.32 39.75 50.25 C 39.75 48.18 38.07 46.5 36 46.5 C 33.93 46.5 32.25 48.18 32.25 50.25 C 32.25 52.32 33.93 54 36 54 Z M 36 54" style="fill: rgb(255, 255, 255);"></path>
    </g>
  </g>
</svg>
